<svg width="24" height="24" viewBox="0 0 24 24" fill="none" xmlns="http://www.w3.org/2000/svg">
<g id="card">
<g id="Buy">
<g id="Group 7">
<path id="Fill 1" fill-rule="evenodd" clip-rule="evenodd" d="M6.3277 8.34749L6.9307 15.5195C6.9747 16.0715 7.4257 16.4855 7.9767 16.4855H7.9807H18.8917H18.8937C19.4147 16.4855 19.8597 16.0975 19.9337 15.5825L20.8837 9.02349C20.9057 8.86749 20.8667 8.71149 20.7717 8.58549C20.6777 8.45849 20.5397 8.37649 20.3837 8.35449C20.1747 8.36249 11.5017 8.35049 6.3277 8.34749ZM7.9747 17.9855C6.6577 17.9855 5.5427 16.9575 5.4357 15.6425L4.5197 4.74849L3.0127 4.48849C2.6037 4.41649 2.3307 4.02949 2.4007 3.62049C2.4727 3.21149 2.8677 2.94549 3.2677 3.00949L5.3477 3.36949C5.6827 3.42849 5.9377 3.70649 5.9667 4.04649L6.2017 6.84749C20.4777 6.85349 20.5237 6.86049 20.5927 6.86849C21.1497 6.94949 21.6397 7.24049 21.9737 7.68849C22.3077 8.13549 22.4477 8.68649 22.3677 9.23849L21.4187 15.7965C21.2397 17.0445 20.1557 17.9855 18.8957 17.9855H18.8907H7.9827H7.9747Z" fill="#828282"/>
<path id="Fill 3" fill-rule="evenodd" clip-rule="evenodd" d="M17.2876 12.0439H14.5156C14.1006 12.0439 13.7656 11.7079 13.7656 11.2939C13.7656 10.8799 14.1006 10.5439 14.5156 10.5439H17.2876C17.7016 10.5439 18.0376 10.8799 18.0376 11.2939C18.0376 11.7079 17.7016 12.0439 17.2876 12.0439Z" fill="#828282"/>
<path id="Fill 5" fill-rule="evenodd" clip-rule="evenodd" d="M7.5445 20.7021C7.8455 20.7021 8.0885 20.9451 8.0885 21.2461C8.0885 21.5471 7.8455 21.7911 7.5445 21.7911C7.2425 21.7911 6.9995 21.5471 6.9995 21.2461C6.9995 20.9451 7.2425 20.7021 7.5445 20.7021Z" fill="#828282"/>
</g>
<g id="Group 10">
<mask id="mask0_1719_6599" style="mask-type:alpha" maskUnits="userSpaceOnUse" x="6" y="20" width="3" height="2">
<path id="Clip 9" fill-rule="evenodd" clip-rule="evenodd" d="M6.999 21.2452C6.999 21.5472 7.242 21.7912 7.545 21.7912C7.846 21.7912 8.089 21.5472 8.089 21.2452C8.089 20.9442 7.846 20.7012 7.545 20.7012C7.242 20.7012 6.999 20.9442 6.999 21.2452Z" fill="white"/>
</mask>
<g mask="url(#mask0_1719_6599)">
<path id="Fill 8" fill-rule="evenodd" clip-rule="evenodd" d="M2 26.7902H13.089V15.7012H2V26.7902Z" fill="#828282"/>
</g>
</g>
<g id="Group 15">
<path id="Fill 11" fill-rule="evenodd" clip-rule="evenodd" d="M7.5435 21.0411C7.4305 21.0411 7.3385 21.1331 7.3385 21.2461C7.3385 21.4731 7.7495 21.4731 7.7495 21.2461C7.7495 21.1331 7.6565 21.0411 7.5435 21.0411ZM7.5435 22.5411C6.8295 22.5411 6.2495 21.9601 6.2495 21.2461C6.2495 20.5321 6.8295 19.9521 7.5435 19.9521C8.2575 19.9521 8.8385 20.5321 8.8385 21.2461C8.8385 21.9601 8.2575 22.5411 7.5435 22.5411Z" fill="#828282"/>
<path id="Fill 13" fill-rule="evenodd" clip-rule="evenodd" d="M18.8248 20.7021C19.1258 20.7021 19.3698 20.9451 19.3698 21.2461C19.3698 21.5471 19.1258 21.7911 18.8248 21.7911C18.5228 21.7911 18.2798 21.5471 18.2798 21.2461C18.2798 20.9451 18.5228 20.7021 18.8248 20.7021Z" fill="#828282"/>
</g>
<g id="Group 18">
<mask id="mask1_1719_6599" style="mask-type:alpha" maskUnits="userSpaceOnUse" x="18" y="20" width="2" height="2">
<path id="Clip 17" fill-rule="evenodd" clip-rule="evenodd" d="M18.28 21.2452C18.28 21.5472 18.523 21.7912 18.825 21.7912C19.125 21.7912 19.37 21.5472 19.37 21.2452C19.37 20.9442 19.125 20.7012 18.825 20.7012C18.523 20.7012 18.28 20.9442 18.28 21.2452Z" fill="white"/>
</mask>
<g mask="url(#mask1_1719_6599)">
<path id="Fill 16" fill-rule="evenodd" clip-rule="evenodd" d="M13.28 26.7902H24.37V15.7012H13.28V26.7902Z" fill="#828282"/>
</g>
</g>
<path id="Fill 19" fill-rule="evenodd" clip-rule="evenodd" d="M18.8238 21.0411C18.7118 21.0411 18.6198 21.1331 18.6198 21.2461C18.6208 21.4751 19.0308 21.4731 19.0298 21.2461C19.0298 21.1331 18.9368 21.0411 18.8238 21.0411ZM18.8238 22.5411C18.1098 22.5411 17.5298 21.9601 17.5298 21.2461C17.5298 20.5321 18.1098 19.9521 18.8238 19.9521C19.5388 19.9521 20.1198 20.5321 20.1198 21.2461C20.1198 21.9601 19.5388 22.5411 18.8238 22.5411Z" fill="#828282"/>
</g>
</g>
</svg>
