<svg width="24" height="24" viewBox="0 0 24 24" fill="none" xmlns="http://www.w3.org/2000/svg">
<mask id="mask0_1719_6609" style="mask-type:alpha" maskUnits="userSpaceOnUse" x="2" y="2" width="21" height="21">
<path fill-rule="evenodd" clip-rule="evenodd" d="M2.00043 2H22.5V22.4995H2.00043V2Z" fill="white"/>
</mask>
<g mask="url(#mask0_1719_6609)">
<path fill-rule="evenodd" clip-rule="evenodd" d="M4.35951 5.06018C4.36151 5.06018 4.31151 5.11218 4.24851 5.17418C4.00651 5.40918 3.50551 5.89818 3.50051 6.92118C3.49251 8.35218 4.43351 11.0092 8.96451 15.5392C13.4745 20.0472 16.1275 20.9992 17.5615 20.9992H17.5825C18.6055 20.9942 19.0935 20.4922 19.3295 20.2512C19.4015 20.1772 19.4595 20.1232 19.5005 20.0892C20.4965 19.0872 21.0065 18.3412 21.0015 17.8632C20.9945 17.3752 20.3875 16.7982 19.5485 16.0002C19.2815 15.7462 18.9915 15.4702 18.6855 15.1642C17.8925 14.3732 17.4995 14.5082 16.6355 14.8122C15.4405 15.2312 13.8005 15.8012 11.2525 13.2522C8.70051 10.7022 9.27151 9.06418 9.68951 7.86918C9.99151 7.00518 10.1295 6.61118 9.33551 5.81718C9.02451 5.50718 8.74551 5.21318 8.48851 4.94318C7.69551 4.10918 7.12351 3.50618 6.63851 3.49918H6.63051C6.15151 3.49918 5.40751 4.01118 4.35451 5.06418C4.35751 5.06118 4.35851 5.06018 4.35951 5.06018ZM17.5625 22.4992C15.0705 22.4992 11.8215 20.5152 7.90451 16.6002C3.97251 12.6692 1.98551 9.41018 2.00051 6.91318C2.00951 5.26318 2.87451 4.41818 3.19951 4.10118C3.21651 4.08018 3.27451 4.02318 3.29451 4.00318C4.72851 2.56818 5.69551 1.98818 6.65751 1.99918C7.77451 2.01418 8.56951 2.85018 9.57551 3.90918C9.82451 4.17118 10.0945 4.45618 10.3955 4.75618C11.8555 6.21618 11.4395 7.40718 11.1055 8.36318C10.7415 9.40618 10.4265 10.3062 12.3125 12.1922C14.2005 14.0782 15.1005 13.7632 16.1395 13.3962C17.0965 13.0622 18.2845 12.6442 19.7465 14.1042C20.0425 14.4002 20.3235 14.6672 20.5825 14.9142C21.6465 15.9252 22.4865 16.7242 22.5005 17.8442C22.5125 18.7992 21.9325 19.7722 20.5005 21.2052L19.8665 20.7752L20.4025 21.2992C20.0855 21.6242 19.2415 22.4902 17.5905 22.4992H17.5625Z" fill="#FC5C12"/>
</g>
</svg>
