<svg width="24" height="24" viewBox="0 0 24 24" fill="none" xmlns="http://www.w3.org/2000/svg">
<g id="time">
<g id="Time Square">
<path id="Fill 1" fill-rule="evenodd" clip-rule="evenodd" d="M7.665 3.5C5.135 3.5 3.5 5.233 3.5 7.916V16.084C3.5 18.767 5.135 20.5 7.665 20.5H16.333C18.864 20.5 20.5 18.767 20.5 16.084V7.916C20.5 5.233 18.865 3.5 16.334 3.5H7.665ZM16.333 22H7.665C4.276 22 2 19.622 2 16.084V7.916C2 4.378 4.276 2 7.665 2H16.334C19.723 2 22 4.378 22 7.916V16.084C22 19.622 19.723 22 16.333 22Z" fill="#FC5C12"/>
<path id="Fill 3" fill-rule="evenodd" clip-rule="evenodd" d="M15.3901 14.7678C15.2591 14.7678 15.1271 14.7338 15.0061 14.6628L11.6151 12.6398C11.3891 12.5038 11.2491 12.2588 11.2491 11.9958V7.63379C11.2491 7.21979 11.5851 6.88379 11.9991 6.88379C12.4131 6.88379 12.7491 7.21979 12.7491 7.63379V11.5698L15.7751 13.3728C16.1301 13.5858 16.2471 14.0458 16.0351 14.4018C15.8941 14.6368 15.6451 14.7678 15.3901 14.7678Z" fill="#FC5C12"/>
</g>
</g>
</svg>
